# xmcd
#
# Track frame offsets:
#	150
#	12163
#	28856
#	44528
#	59588
#	72456
#	90216
#	104437
#	119744
#	137901
#	148333
#
# Disc length: 2166 seconds
#
# Revision: 0
# Processed by: cddbd v1.5.1PL0 Copyright (c) Steve Scherf et al.
# Submitted via: dBpowerAMP V4.0
#
DISCID=a908740b
DTITLE=Paul  E. Hunnecutt - Let Me Soothe My Soul
DYEAR=1900
DGENRE=
TTITLE0=Honky-Tonk Superbowl
TTITLE1=When I Think About You
TTITLE2=Ain't There Anything Real
TTITLE3=We Let Our Love Grow
TTITLE4=Application Blues
TTITLE5=Darlin Dear
TTITLE6=No Reason Blues
TTITLE7=Two Trails
TTITLE8=Let Me Soothe My Soul
TTITLE9=The Birth of Yours and Mine
TTITLE10=I'm Gonna Be Bad Today
EXTD=
EXTT0=
EXTT1=
EXTT2=
EXTT3=
EXTT4=
EXTT5=
EXTT6=
EXTT7=
EXTT8=
EXTT9=
EXTT10=
PLAYORDER=
